<svg xmlns="http://www.w3.org/2000/svg" width="234" height="18" viewBox="0 0 234 18">
  <g id="toolbar" fill="#4c4c4c">
    <path id="aios-window-2" d="M164.44 2c-.914.278-1.152.81-1.438 1.688v10.437c.217 1.33.753 1.636 2.063 1.875h11.937c1.305-.205 1.705-.574 2-1.875V4c-.198-1.228-.5-1.63-1.688-2zm7.563 1h1v1h-1zm2 0h1v1h-1zm2 0h2v1h-2zm-8 3h10v9h-10z"/>
    <path id="multipanel" d="M88.546 11.386l-4.243.021 1.382 4.012-3.445-2.477L81 17l-1.331-4.029-3.388 2.555 1.29-4.042-4.242.075 3.42-2.512-3.476-2.433 4.243-.02-1.382-4.013 3.445 2.477L80.82 1l1.331 4.03 3.388-2.555-1.29 4.042 4.242-.075-3.42 2.511z"/>
    <path id="aios-window-4" d="M200.44 2c-.914.278-1.151.81-1.438 1.688v10.438c.217 1.33.753 1.636 2.063 1.875h11.938c1.305-.205 1.705-.575 2-1.875V4c-.198-1.228-.5-1.63-1.688-2zm7.563 1h1v1h-1zm2 0h1v1h-1zm2 0h2v1h-2zm-12 3h14v9h-14zm1 1v3h3V7zm0 4v3h3v-3z"/>
    <path id="page-info" d="M99 2a7 7 0 0 0-7 7 7 7 0 0 0 7 7 7 7 0 0 0 7-7 7 7 0 0 0-7-7zm0 2.406a1.094 1.094 0 0 1 1.094 1.094A1.094 1.094 0 0 1 99 6.594 1.094 1.094 0 0 1 97.906 5.5 1.094 1.094 0 0 1 99 4.406zm0 3.719c.485 0 .875.39.875.875v3.5c0 .485-.39.875-.875.875s-.875-.39-.875-.875V9c0-.485.39-.875.875-.875z"/>
    <path id="aios-window-3" d="M182.44 2c-.914.278-1.151.81-1.438 1.688v10.438c.217 1.33.753 1.636 2.063 1.875h11.938c1.305-.205 1.705-.575 2-1.875V4c-.198-1.228-.5-1.63-1.688-2zm7.563 1h1v1h-1zm2 0h1v1h-1zm2 0h2v1h-2zm-8 3h10v9h-10zm5 2l-3 3 3 3zm1 0v6l3-3z"/>
    <path id="aios-window-1" d="M146.44 2c-.914.278-1.151.81-1.438 1.688v10.438c.217 1.33.753 1.636 2.063 1.875h11.938c1.305-.205 1.705-.575 2-1.875V4c-.198-1.228-.5-1.63-1.688-2zm7.563 1h1v1h-1zm2 0h1v1h-1zm2 0h2v1h-2zm-8 3h10v9h-10zm3 5l3 3 3-3z"/>
    <path id="panel-tab" d="M133 4l-6 5 6 5v-4h4v4l6-5-6-5v4h-4z"/>
    <path id="cookie" d="M224.96 1.002A8 8 0 0 0 217.005 9a8 8 0 0 0 8 8 8 8 0 0 0 8-8 8 8 0 0 0-1.246-4.285 5 5 0 0 1-1.887.373 5 5 0 0 1-.426-.022 2 2 0 0 1-1.574.768 2 2 0 0 1-2-2 2 2 0 0 1 .102-.621 5 5 0 0 1-1.014-2.211zm-3.25 3.871a1 1 0 0 1 1 1 1 1 0 0 1-1 1 1 1 0 0 1-1-1 1 1 0 0 1 1-1zm7 2a1 1 0 0 1 1 1 1 1 0 0 1-1 1 1 1 0 0 1-1-1 1 1 0 0 1 1-1zm-3.785.645a1 1 0 0 1 1 1 1 1 0 0 1-1 1 1 1 0 0 1-1-1 1 1 0 0 1 1-1zm-3.215 2.355a1 1 0 0 1 1 1 1 1 0 0 1-1 1 1 1 0 0 1-1-1 1 1 0 0 1 1-1zm5 2a1 1 0 0 1 1 1 1 1 0 0 1-1 1 1 1 0 0 1-1-1 1 1 0 0 1 1-1z"/>
  </g>
</svg>
